HIERARCHY
ROOT Hips
{
	OFFSET 0.000000 87.230942 0.000000
	CHANNELS 6 Xposition Yposition Zposition Xrotation Yrotation Zrotation
	JOINT Pelvis
	{
		OFFSET 0.000000 0.000000 0.000000
		CHANNELS 3 Xrotation Yrotation Zrotation
		JOINT LeftUpLeg
		{
			OFFSET 12.017000 -9.376404 -2.439400
			CHANNELS 3 Xrotation Yrotation Zrotation
			JOINT LeftLeg
			{
				OFFSET -0.007312 -32.846973 2.110600
				CHANNELS 3 Xrotation Yrotation Zrotation
				JOINT LeftFoot
				{
					OFFSET 0.007312 -32.065170 -0.570400
					CHANNELS 3 Xrotation Yrotation Zrotation
					JOINT LeftToeBase
					{
						OFFSET 0.728300 -11.045900 13.180700
						CHANNELS 3 Xrotation Yrotation Zrotation
						End Site
						{
							OFFSET 0.000000 17.212589 0.000000
						}
					}
				}
				JOINT LeftPantLeg
				{
					OFFSET 0.002788 -16.709013 -3.143600
					CHANNELS 3 Xrotation Yrotation Zrotation
					End Site
					{
						OFFSET -0.605125 24.528742 0.000000
					}
				}
			}
			JOINT Left_Butt
			{
				OFFSET -6.630234 1.326584 -3.183700
				CHANNELS 3 Xrotation Yrotation Zrotation
				End Site
				{
					OFFSET -0.498041 20.188049 0.000000
				}
			}
		}
		JOINT RightUpLeg
		{
			OFFSET -11.717000 -9.376404 -2.439400
			CHANNELS 3 Xrotation Yrotation Zrotation
			JOINT RightLeg
			{
				OFFSET -0.003241 -32.846912 2.110600
				CHANNELS 3 Xrotation Yrotation Zrotation
				JOINT RightFoot
				{
					OFFSET 0.003241 -32.065136 -0.570500
					CHANNELS 3 Xrotation Yrotation Zrotation
					JOINT RightToeBase
					{
						OFFSET -0.728300 -11.045901 13.180700
						CHANNELS 3 Xrotation Yrotation Zrotation
						End Site
						{
							OFFSET 0.000000 17.212593 0.000000
						}
					}
				}
				JOINT RightPantLeg
				{
					OFFSET 0.008142 -16.708982 -3.143700
					CHANNELS 3 Xrotation Yrotation Zrotation
					End Site
					{
						OFFSET 0.605088 24.528715 0.000000
					}
				}
			}
			JOINT Right_Butt
			{
				OFFSET 6.630732 1.326584 -3.183700
				CHANNELS 3 Xrotation Yrotation Zrotation
				End Site
				{
					OFFSET 0.498015 20.188240 0.000000
				}
			}
		}
	}
	JOINT Spine
	{
		OFFSET -0.062400 7.848404 3.918300
		CHANNELS 3 Xrotation Yrotation Zrotation
		JOINT Spine1
		{
			OFFSET -0.072800 11.422302 0.713400
			CHANNELS 3 Xrotation Yrotation Zrotation
			JOINT Spine2
			{
				OFFSET -0.083200 13.054001 -1.931600
				CHANNELS 3 Xrotation Yrotation Zrotation
				JOINT Neck
				{
					OFFSET -0.092200 14.121796 -5.138800
					CHANNELS 3 Xrotation Yrotation Zrotation
					JOINT Head
					{
						OFFSET 0.000200 10.447403 -0.842000
						CHANNELS 3 Xrotation Yrotation Zrotation
						JOINT Visor
						{
							OFFSET 0.457100 25.671204 16.550400
							CHANNELS 3 Xrotation Yrotation Zrotation
							End Site
							{
								OFFSET 0.000000 26.061493 0.000000
							}
						}
						JOINT HairMidA
						{
							OFFSET 0.459400 31.585403 8.437400
							CHANNELS 3 Xrotation Yrotation Zrotation
							End Site
							{
								OFFSET 0.000000 26.061493 0.000000
							}
						}
						JOINT HairMidB
						{
							OFFSET 0.464000 33.309204 -8.389700
							CHANNELS 3 Xrotation Yrotation Zrotation
							End Site
							{
								OFFSET 0.000000 26.061493 0.000000
							}
						}
						JOINT HairMidC
						{
							OFFSET 0.466600 27.991196 -17.375099
							CHANNELS 3 Xrotation Yrotation Zrotation
							End Site
							{
								OFFSET 0.000000 26.061493 0.000000
							}
						}
						JOINT HairMidD
						{
							OFFSET 0.467700 17.888092 -21.169500
							CHANNELS 3 Xrotation Yrotation Zrotation
							End Site
							{
								OFFSET 0.000000 26.061493 0.000000
							}
						}
						JOINT HairMidE
						{
							OFFSET 5.325700 3.514603 -14.369699
							CHANNELS 3 Xrotation Yrotation Zrotation
							End Site
							{
								OFFSET 0.000000 26.061493 0.000000
							}
						}
						JOINT HairMidF
						{
							OFFSET -4.394100 3.514603 -14.372400
							CHANNELS 3 Xrotation Yrotation Zrotation
							End Site
							{
								OFFSET 0.000000 26.061493 0.000000
							}
						}
						JOINT HairLeftA
						{
							OFFSET 15.319900 25.746506 2.623300
							CHANNELS 3 Xrotation Yrotation Zrotation
							End Site
							{
								OFFSET 0.000000 26.061493 0.000000
							}
						}
						JOINT HairLeftB
						{
							OFFSET 12.619500 29.289398 -8.731499
							CHANNELS 3 Xrotation Yrotation Zrotation
							End Site
							{
								OFFSET 0.000000 26.061493 0.000000
							}
						}
						JOINT HairLeftC
						{
							OFFSET 15.714800 15.959900 2.909800
							CHANNELS 3 Xrotation Yrotation Zrotation
							End Site
							{
								OFFSET 0.000000 26.061493 0.000000
							}
						}
						JOINT HairLeftD
						{
							OFFSET 16.101700 18.437408 -7.553200
							CHANNELS 3 Xrotation Yrotation Zrotation
							End Site
							{
								OFFSET 0.000000 26.061493 0.000000
							}
						}
						JOINT HairLeftE
						{
							OFFSET 9.731900 17.915009 -18.316799
							CHANNELS 3 Xrotation Yrotation Zrotation
							End Site
							{
								OFFSET 0.000000 26.061493 0.000000
							}
						}
						JOINT HairLeftF
						{
							OFFSET 11.204300 4.953598 -9.668100
							CHANNELS 3 Xrotation Yrotation Zrotation
							End Site
							{
								OFFSET 0.000000 26.061493 0.000000
							}
						}
						JOINT HairRightA
						{
							OFFSET -14.397900 25.746307 2.615100
							CHANNELS 3 Xrotation Yrotation Zrotation
							End Site
							{
								OFFSET 0.000000 26.061493 0.000000
							}
						}
						JOINT HairRightB
						{
							OFFSET -11.691200 29.289200 -8.738199
							CHANNELS 3 Xrotation Yrotation Zrotation
							End Site
							{
								OFFSET 0.000000 26.061493 0.000000
							}
						}
						JOINT HairRightC
						{
							OFFSET -14.792900 15.959702 2.901400
							CHANNELS 3 Xrotation Yrotation Zrotation
							End Site
							{
								OFFSET 0.000000 26.061493 0.000000
							}
						}
						JOINT HairRightD
						{
							OFFSET -15.174000 18.437195 -7.561900
							CHANNELS 3 Xrotation Yrotation Zrotation
							End Site
							{
								OFFSET 0.000000 26.061493 0.000000
							}
						}
						JOINT HairRightE
						{
							OFFSET -8.798200 17.914902 -18.322001
							CHANNELS 3 Xrotation Yrotation Zrotation
							End Site
							{
								OFFSET 0.000000 26.061493 0.000000
							}
						}
						JOINT HairRightF
						{
							OFFSET -10.275200 4.953506 -9.674099
							CHANNELS 3 Xrotation Yrotation Zrotation
							End Site
							{
								OFFSET 0.000000 26.061493 0.000000
							}
						}
					}
				}
				JOINT LeftShoulder
				{
					OFFSET 5.133500 7.341202 -1.867600
					CHANNELS 3 Xrotation Yrotation Zrotation
					JOINT LeftArm
					{
						OFFSET 8.072663 0.936867 -2.176600
						CHANNELS 3 Xrotation Yrotation Zrotation
						JOINT LeftForeArm
						{
							OFFSET 31.271999 0.000000 0.000000
							CHANNELS 3 Xrotation Yrotation Zrotation
							JOINT LeftHand
							{
								OFFSET 31.771030 0.000000 0.000000
								CHANNELS 3 Xrotation Yrotation Zrotation
								JOINT LeftHandThumb1
								{
									OFFSET 2.886520 -2.557846 4.416640
									CHANNELS 3 Xrotation Yrotation Zrotation
									JOINT LeftHandThumb2
									{
										OFFSET 2.371025 -1.368912 1.368911
										CHANNELS 3 Xrotation Yrotation Zrotation
										JOINT LeftHandThumb3
										{
											OFFSET 2.243378 -1.295212 1.295213
											CHANNELS 3 Xrotation Yrotation Zrotation
											End Site
											{
												OFFSET -0.332611 2.876945 0.020015
											}
										}
									}
								}
								JOINT LeftHandIndex1
								{
									OFFSET 8.568985 -0.641945 3.119977
									CHANNELS 3 Xrotation Yrotation Zrotation
									JOINT LeftHandIndex2
									{
										OFFSET 3.348503 0.000000 0.000000
										CHANNELS 3 Xrotation Yrotation Zrotation
										JOINT LeftHandIndex3
										{
											OFFSET 3.314552 0.000000 0.000000
											CHANNELS 3 Xrotation Yrotation Zrotation
											End Site
											{
												OFFSET -1.032898 3.075485 0.678796
											}
										}
									}
								}
								JOINT LeftHandMiddle1
								{
									OFFSET 8.124603 0.000000 0.000000
									CHANNELS 3 Xrotation Yrotation Zrotation
									JOINT LeftHandMiddle2
									{
										OFFSET 4.166275 0.000000 0.000000
										CHANNELS 3 Xrotation Yrotation Zrotation
										JOINT LeftHandMiddle3
										{
											OFFSET 3.018135 0.000000 0.000000
											CHANNELS 3 Xrotation Yrotation Zrotation
											End Site
											{
												OFFSET -1.032700 2.767982 0.617226
											}
										}
									}
								}
								JOINT LeftHandRing1
								{
									OFFSET 8.571686 -0.031357 -2.884048
									CHANNELS 3 Xrotation Yrotation Zrotation
									JOINT LeftHandRing2
									{
										OFFSET 3.671181 0.000000 0.000000
										CHANNELS 3 Xrotation Yrotation Zrotation
										JOINT LeftHandRing3
										{
											OFFSET 2.728851 0.000000 0.000000
											CHANNELS 3 Xrotation Yrotation Zrotation
											End Site
											{
												OFFSET -0.815796 2.539223 0.577389
											}
										}
									}
								}
								JOINT LeftHandPinky1
								{
									OFFSET 7.854515 -0.675232 -5.213020
									CHANNELS 3 Xrotation Yrotation Zrotation
									JOINT LeftHandPinky2
									{
										OFFSET 3.068596 0.000000 0.000000
										CHANNELS 3 Xrotation Yrotation Zrotation
										JOINT LeftHandPinky3
										{
											OFFSET 2.396042 0.000000 0.000000
											CHANNELS 3 Xrotation Yrotation Zrotation
											End Site
											{
												OFFSET -0.524597 2.267998 0.567429
											}
										}
									}
								}
							}
							JOINT LeftSleeve
							{
								OFFSET 19.684509 -0.200119 0.476146
								CHANNELS 3 Xrotation Yrotation Zrotation
								End Site
								{
									OFFSET -0.031017 25.731133 -0.002868
								}
							}
						}
					}
				}
				JOINT RightShoulder
				{
					OFFSET -4.395900 7.341202 -1.870200
					CHANNELS 3 Xrotation Yrotation Zrotation
					JOINT RightArm
					{
						OFFSET -8.071453 0.936867 -2.181100
						CHANNELS 3 Xrotation Yrotation Zrotation
						JOINT RightForeArm
						{
							OFFSET -31.272011 0.000000 0.000000
							CHANNELS 3 Xrotation Yrotation Zrotation
							JOINT RightHand
							{
								OFFSET -31.771019 0.000000 0.000000
								CHANNELS 3 Xrotation Yrotation Zrotation
								JOINT RightHandThumb1
								{
									OFFSET -2.886520 -2.557808 4.416626
									CHANNELS 3 Xrotation Yrotation Zrotation
									JOINT RightHandThumb2
									{
										OFFSET -2.371056 -1.368927 1.368928
										CHANNELS 3 Xrotation Yrotation Zrotation
										JOINT RightHandThumb3
										{
											OFFSET -2.243362 -1.295204 1.295206
											CHANNELS 3 Xrotation Yrotation Zrotation
											End Site
											{
												OFFSET 0.332642 2.876938 0.020047
											}
										}
									}
								}
								JOINT RightHandIndex1
								{
									OFFSET -8.568993 -0.641953 3.120017
									CHANNELS 3 Xrotation Yrotation Zrotation
									JOINT RightHandIndex2
									{
										OFFSET -3.348518 0.000000 0.000000
										CHANNELS 3 Xrotation Yrotation Zrotation
										JOINT RightHandIndex3
										{
											OFFSET -3.314552 0.000000 0.000000
											CHANNELS 3 Xrotation Yrotation Zrotation
											End Site
											{
												OFFSET 1.032898 3.075478 0.678804
											}
										}
									}
								}
								JOINT RightHandMiddle1
								{
									OFFSET -8.124588 0.000000 0.000000
									CHANNELS 3 Xrotation Yrotation Zrotation
									JOINT RightHandMiddle2
									{
										OFFSET -4.166275 0.000000 0.000000
										CHANNELS 3 Xrotation Yrotation Zrotation
										JOINT RightHandMiddle3
										{
											OFFSET -3.018097 0.000000 0.000000
											CHANNELS 3 Xrotation Yrotation Zrotation
											End Site
											{
												OFFSET 1.032700 2.767937 0.617197
											}
										}
									}
								}
								JOINT RightHandRing1
								{
									OFFSET -8.571747 -0.031349 -2.884061
									CHANNELS 3 Xrotation Yrotation Zrotation
									JOINT RightHandRing2
									{
										OFFSET -3.671204 0.000000 0.000000
										CHANNELS 3 Xrotation Yrotation Zrotation
										JOINT RightHandRing3
										{
											OFFSET -2.728874 0.000000 0.000000
											CHANNELS 3 Xrotation Yrotation Zrotation
											End Site
											{
												OFFSET 0.815804 2.539261 0.577413
											}
										}
									}
								}
								JOINT RightHandPinky1
								{
									OFFSET -7.854561 -0.675247 -5.212970
									CHANNELS 3 Xrotation Yrotation Zrotation
									JOINT RightHandPinky2
									{
										OFFSET -3.068550 0.000000 0.000000
										CHANNELS 3 Xrotation Yrotation Zrotation
										JOINT RightHandPinky3
										{
											OFFSET -2.395981 0.000000 0.000000
											CHANNELS 3 Xrotation Yrotation Zrotation
											End Site
											{
												OFFSET 0.524605 2.267952 0.567413
											}
										}
									}
								}
							}
							JOINT RightSleeve
							{
								OFFSET -19.684753 -0.200165 0.476065
								CHANNELS 3 Xrotation Yrotation Zrotation
								End Site
								{
									OFFSET 0.031342 25.731255 -0.002917
								}
							}
						}
					}
				}
				JOINT Hood
				{
					OFFSET 0.369700 14.447800 -5.317800
					CHANNELS 3 Xrotation Yrotation Zrotation
					JOINT Hood1
					{
						OFFSET 0.001700 -5.553802 -5.895100
						CHANNELS 3 Xrotation Yrotation Zrotation
						JOINT Hood2
						{
							OFFSET -0.000200 -8.380501 0.763600
							CHANNELS 3 Xrotation Yrotation Zrotation
							End Site
							{
								OFFSET 0.000000 8.415215 0.000000
							}
						}
					}
				}
				JOINT Left_Breast
				{
					OFFSET 5.682500 3.120102 3.188800
					CHANNELS 3 Xrotation Yrotation Zrotation
					End Site
					{
						OFFSET 0.000000 10.528564 0.000000
					}
				}
				JOINT Right_Breast
				{
					OFFSET -4.947600 3.120102 3.185900
					CHANNELS 3 Xrotation Yrotation Zrotation
					End Site
					{
						OFFSET 0.000000 10.528564 0.000000
					}
				}
				JOINT Whistle
				{
					OFFSET 0.368200 11.471298 0.095400
					CHANNELS 3 Xrotation Yrotation Zrotation
					JOINT Whistle1
					{
						OFFSET -0.002000 -6.349899 7.479800
						CHANNELS 3 Xrotation Yrotation Zrotation
						JOINT Whistle2
						{
							OFFSET -0.001300 -8.217598 4.717600
							CHANNELS 3 Xrotation Yrotation Zrotation
							End Site
							{
								OFFSET 0.000000 9.475479 0.000000
							}
						}
					}
				}
			}
		}
		JOINT Belly
		{
			OFFSET 0.212400 1.593002 3.163700
			CHANNELS 3 Xrotation Yrotation Zrotation
			End Site
			{
				OFFSET 0.000000 7.496635 0.000000
			}
		}
	}
	JOINT FitGrandmaFacialAnim_Joint
	{
		OFFSET 1.150000 -86.211197 -1.220100
		CHANNELS 3 Xrotation Yrotation Zrotation
		End Site
		{
			OFFSET 0.000000 31.666618 0.000000
		}
	}
}
MOTION
Frames: 4
Frame Time: 0.016667
-2.595367 73.169319 1.968479 11.676187 -49.425660 11.279054 -0.000001 -0.000001 0.000000 -62.310095 28.877948 43.416999 47.636939 -21.391529 3.308683 -2.466236 1.388762 -10.658915 -0.000000 -0.000000 -0.000000 0.000001 0.000001 -0.000001 -0.000001 -0.000001 0.000001 -29.833768 -1.493225 -26.649759 55.567165 3.695659 -6.881568 -32.972202 -4.594083 25.476981 -0.000000 -0.000002 -0.000000 -0.000000 -0.000001 0.000006 0.000001 0.000002 0.000001 10.972985 2.772297 -2.041708 6.100704 5.566556 -4.284694 -5.786909 6.328135 -3.046183 2.319052 9.363318 -0.265469 -4.147100 23.161902 -3.523277 -0.000000 0.000000 0.000000 -0.000000 0.000000 0.000000 -0.000000 0.000000 0.000000 -0.000000 0.000000 0.000000 -0.000000 0.000000 0.000000 -0.000000 0.000000 0.000000 -0.000000 0.000000 0.000000 -0.000000 0.000000 0.000000 -0.000000 0.000000 0.000000 -0.000000 0.000000 0.000000 -0.000000 0.000000 0.000000 -0.000000 0.000000 0.000000 -0.000000 0.000000 0.000000 -0.000000 0.000000 0.000000 -0.000000 0.000000 0.000000 -0.000000 0.000000 0.000000 -0.000000 0.000000 0.000000 -0.000000 0.000000 0.000000 -0.000000 0.000000 0.000000 -1.875335 -16.181681 -2.870470 -10.644678 2.164663 -45.510633 -22.862383 -25.786245 -15.871655 2.491033 -2.511867 6.860446 18.457968 -9.513795 13.216603 -1.150218 11.255320 -8.400835 -0.000003 0.000002 0.000002 -1.232787 -5.771975 -0.192345 0.133940 -0.197654 -4.602142 0.000002 0.000000 0.000004 1.884736 4.663381 -4.597393 0.476677 -1.009858 -12.986405 -0.000002 0.000000 0.000000 3.024627 7.938918 -14.103471 -0.708022 -0.566197 -18.895739 0.000002 0.000001 -0.000001 2.010391 6.305962 -22.386538 -0.815371 -0.210759 -16.746452 0.000000 -0.000001 0.000001 -0.000001 0.000003 -0.000002 -5.074634 24.343808 1.482710 6.642353 -34.733793 57.610378 -21.031973 44.833782 19.961655 -0.087198 35.608498 7.474214 55.149570 18.649548 -29.698277 -0.442566 -14.180560 7.313154 0.000002 0.000002 0.000001 5.673391 7.585019 36.844175 1.050430 3.824495 68.900257 0.000002 -0.000000 0.000001 -0.125715 1.886103 45.000776 -1.169020 3.204655 68.417670 0.000002 0.000000 -0.000002 -5.312002 1.216637 58.508807 -0.745211 1.667559 48.011281 0.000001 -0.000002 0.000004 -7.756805 -9.376502 47.264007 -0.526039 1.541625 45.600515 -0.000003 0.000001 -0.000001 0.000001 0.000001 -0.000001 0.000000 -0.000003 0.000001 0.000000 -0.000003 0.000001 0.000000 -0.000003 0.000001 0.000000 -0.000003 0.000001 0.000000 -0.000003 0.000001 0.000000 -0.000003 0.000001 0.000000 -0.000003 0.000000 0.000000 -0.000003 0.000000 0.000001 -0.000001 -0.000000 -0.000001 -0.000001 0.000000 
-2.085751 73.273087 2.676204 11.460952 -50.024883 11.063235 0.000000 -0.000003 0.000000 -62.204828 28.968499 43.535018 49.054173 -20.941691 3.127554 -3.758203 1.395194 -9.832215 -0.000000 0.000000 -0.000000 -0.000000 -0.000002 0.000001 -0.000005 0.000000 -0.000000 -29.074483 -1.300974 -26.894213 54.019065 3.875582 -7.169259 -31.695411 -5.142668 26.287004 -0.000000 0.000002 0.000000 0.000002 0.000001 0.000001 -0.000001 0.000002 -0.000001 10.935921 2.756319 -1.986897 6.124975 5.554787 -4.185738 -5.749232 6.252888 -2.945712 2.454507 9.259357 0.283437 -4.037791 23.425828 -4.188949 0.000001 -0.000000 -0.000000 0.000001 -0.000000 -0.000000 0.000001 -0.000000 -0.000000 0.000001 -0.000000 -0.000000 0.000001 -0.000000 -0.000000 0.000001 -0.000000 -0.000000 0.000001 -0.000000 -0.000000 0.000001 -0.000000 -0.000000 0.000001 -0.000000 -0.000000 0.000001 -0.000000 -0.000000 0.000001 -0.000000 -0.000000 0.000001 -0.000000 -0.000000 0.000001 -0.000000 -0.000000 0.000001 -0.000000 -0.000000 0.000001 -0.000000 -0.000000 0.000001 -0.000000 -0.000000 0.000001 -0.000000 -0.000000 0.000001 -0.000000 -0.000000 0.000001 -0.000000 -0.000000 -1.890573 -15.766088 -3.028448 -10.843716 2.172858 -45.626992 -22.239287 -25.278192 -15.651648 2.395509 -2.217330 6.686359 18.445856 -9.517018 13.239955 -1.175407 11.215346 -8.387400 0.000002 -0.000000 0.000002 -1.232781 -5.771111 -0.170629 0.134043 -0.196785 -4.580404 0.000000 -0.000002 0.000002 1.839192 4.652779 -4.567416 0.476910 -1.008863 -12.960905 -0.000000 -0.000002 -0.000000 3.025051 7.940587 -14.060272 -0.707443 -0.564569 -18.852222 0.000000 0.000000 0.000000 2.032021 6.337680 -22.326008 -0.814696 -0.208492 -16.683540 0.000001 -0.000001 0.000001 0.000001 0.000001 0.000001 -5.114983 24.192843 1.600717 7.019145 -34.769399 57.282874 -21.780865 43.486981 20.030020 -0.160470 36.453150 8.087205 55.149570 18.649548 -29.698281 -0.442567 -14.180555 7.313152 0.000001 0.000002 0.000000 5.673388 7.585022 36.844178 1.050432 3.824497 68.900250 -0.000002 -0.000001 -0.000001 -0.125712 1.886101 45.000780 -1.169020 3.204653 68.417663 -0.000000 0.000001 -0.000005 -5.312008 1.216642 58.508807 -0.745210 1.667556 48.011288 0.000001 -0.000002 0.000004 -7.756803 -9.376498 47.264007 -0.526040 1.541628 45.600515 0.000001 0.000001 -0.000001 -0.000003 0.000001 0.000000 0.000002 0.000004 -0.000001 0.000002 0.000004 -0.000001 0.000002 0.000004 -0.000001 0.000002 0.000004 -0.000001 0.000002 0.000004 -0.000001 0.000002 0.000004 -0.000001 0.000001 0.000000 0.000000 0.000001 0.000000 0.000000 0.000001 0.000005 -0.000001 0.000000 -0.000003 0.000000 
-1.470785 73.430664 3.379707 11.274840 -50.793754 10.895928 -0.000000 -0.000000 -0.000000 -61.960860 29.191627 43.607158 50.221725 -20.451053 2.891655 -4.968708 1.456158 -9.010754 0.000000 0.000002 -0.000000 0.000001 -0.000001 -0.000000 0.000000 0.000001 -0.000001 -28.364483 -1.092647 -27.188801 52.226376 4.116602 -7.406002 -30.280366 -5.515578 27.089878 0.000000 0.000000 0.000000 0.000001 0.000001 -0.000002 0.000000 0.000002 -0.000001 10.837453 2.749314 -1.926084 6.211054 5.531379 -4.085917 -5.634570 6.080629 -2.847557 2.506707 8.998884 0.963303 -3.946314 23.543611 -4.816443 -0.000001 -0.000000 -0.000000 -0.000001 -0.000000 -0.000000 -0.000001 -0.000000 -0.000000 -0.000001 -0.000000 -0.000000 -0.000001 -0.000000 -0.000000 -0.000001 -0.000000 -0.000000 -0.000001 -0.000000 -0.000000 -0.000001 -0.000000 -0.000000 -0.000001 -0.000000 -0.000000 -0.000001 -0.000000 -0.000000 -0.000001 -0.000000 -0.000000 -0.000001 -0.000000 -0.000000 -0.000001 -0.000000 -0.000000 -0.000001 -0.000000 -0.000000 -0.000001 -0.000000 -0.000000 -0.000001 -0.000000 -0.000000 -0.000001 -0.000000 -0.000000 -0.000001 -0.000000 -0.000000 -0.000001 -0.000000 -0.000000 -1.898943 -15.838094 -3.026465 -10.916595 3.036747 -45.852703 -21.654529 -24.915507 -15.679235 2.318321 -2.084233 6.697805 18.431653 -9.520789 13.267333 -1.205853 11.169478 -8.368945 0.000002 -0.000001 0.000005 -1.232793 -5.770121 -0.145174 0.134123 -0.195815 -4.554974 -0.000002 -0.000003 0.000002 1.785765 4.640262 -4.532344 0.477184 -1.007126 -12.931006 0.000004 0.000000 0.000001 3.025541 7.942517 -14.009670 -0.706792 -0.562711 -18.801277 0.000004 -0.000000 -0.000002 2.057224 6.374991 -22.255036 -0.813902 -0.205802 -16.609751 -0.000001 -0.000000 0.000001 0.000003 0.000000 -0.000000 -5.162242 24.117340 1.733595 7.217169 -34.742905 57.034812 -22.411828 42.270081 20.016551 -0.144751 37.048879 8.544431 55.149567 18.649553 -29.698284 -0.442566 -14.180560 7.313151 0.000003 0.000005 0.000000 5.673387 7.585025 36.844178 1.050431 3.824497 68.900250 -0.000003 -0.000001 -0.000001 -0.125711 1.886105 45.000773 -1.169022 3.204656 68.417670 0.000004 0.000000 -0.000005 -5.312006 1.216643 58.508807 -0.745211 1.667557 48.011281 -0.000000 0.000000 -0.000002 -7.756803 -9.376497 47.264001 -0.526040 1.541622 45.600515 -0.000003 -0.000002 0.000003 -0.000002 -0.000000 0.000002 0.000000 -0.000000 0.000000 0.000000 -0.000000 0.000000 0.000000 -0.000000 0.000000 0.000000 -0.000000 0.000000 0.000000 -0.000000 0.000000 0.000000 -0.000000 0.000001 -0.000001 -0.000001 0.000000 -0.000001 -0.000001 0.000000 -0.000001 0.000001 -0.000001 -0.000000 -0.000000 -0.000000 
-0.768495 73.615005 4.164216 11.172563 -51.785422 10.793721 0.000000 -0.000000 -0.000000 -61.644459 29.477222 43.648870 51.440484 -19.839702 2.643933 -6.327508 1.604779 -8.157751 0.000000 0.000000 -0.000000 -0.000000 0.000001 0.000001 -0.000001 -0.000001 0.000000 -27.679569 -0.890437 -27.637821 50.067862 4.513948 -7.528013 -28.719644 -5.712627 27.921072 -0.000000 -0.000002 -0.000000 -0.000001 0.000003 -0.000001 0.000002 -0.000002 -0.000001 10.681589 2.731313 -1.849269 6.304679 5.446441 -3.965664 -5.493480 5.769519 -2.734773 2.557820 8.625436 1.729380 -3.941155 23.486691 -5.405071 0.000001 -0.000001 0.000000 0.000001 -0.000001 0.000000 0.000001 -0.000001 0.000000 0.000001 -0.000001 0.000000 0.000001 -0.000001 0.000000 0.000001 -0.000001 0.000000 0.000001 -0.000001 0.000000 0.000001 -0.000001 0.000000 0.000001 -0.000001 0.000000 0.000001 -0.000001 0.000000 0.000001 -0.000001 0.000000 0.000001 -0.000001 0.000000 0.000001 -0.000001 0.000000 0.000001 -0.000001 0.000000 0.000001 -0.000001 0.000000 0.000001 -0.000001 0.000000 0.000001 -0.000001 0.000000 0.000001 -0.000001 0.000000 0.000001 -0.000001 0.000000 -1.912184 -15.416616 -3.171547 -11.148254 3.692030 -46.007533 -20.985188 -24.405041 -15.663029 2.270413 -1.926653 6.652074 18.404081 -9.528101 13.320407 -1.265168 11.080872 -8.332354 -0.000003 0.000002 -0.000000 -1.232763 -5.768236 -0.095806 0.134290 -0.193907 -4.505607 -0.000002 -0.000004 0.000005 1.682301 4.615618 -4.464382 0.477665 -1.003002 -12.873081 0.000001 -0.000001 0.000000 3.030772 7.946186 -13.912203 -0.705571 -0.559043 -18.702511 -0.000002 -0.000001 0.000002 2.105523 6.447787 -22.117585 -0.813380 -0.200603 -16.466596 0.000004 0.000001 0.000001 -0.000001 -0.000000 -0.000002 -5.215427 24.184392 1.892619 6.918591 -34.742198 56.575297 -22.804875 40.833514 19.736808 -0.060808 37.536589 9.176400 55.149567 18.649545 -29.698281 -0.442568 -14.180554 7.313154 -0.000000 -0.000003 -0.000003 5.673400 7.585017 36.844178 1.050433 3.824494 68.900257 0.000001 0.000001 -0.000002 -0.125709 1.886099 45.000776 -1.169023 3.204658 68.417677 0.000000 -0.000000 0.000000 -5.312003 1.216639 58.508807 -0.745210 1.667559 48.011281 0.000001 -0.000004 0.000004 -7.756803 -9.376496 47.264007 -0.526039 1.541627 45.600515 -0.000005 0.000000 0.000001 -0.000001 -0.000001 0.000000 -0.000000 -0.000002 0.000000 -0.000000 -0.000002 0.000000 -0.000000 -0.000002 0.000000 -0.000000 -0.000002 0.000000 -0.000000 -0.000002 0.000000 -0.000000 -0.000002 0.000000 -0.000000 0.000001 -0.000001 -0.000000 0.000001 -0.000001 0.000001 -0.000001 0.000000 0.000000 -0.000000 -0.000000 
